<svg width="14" height="14" viewBox="0 0 14 14" fill="none" xmlns="http://www.w3.org/2000/svg">
<path d="M7 7.4375V10.9375C7 11.0535 6.95391 11.1648 6.87186 11.2469C6.78981 11.3289 6.67853 11.375 6.5625 11.375C6.44647 11.375 6.33519 11.3289 6.25314 11.2469C6.17109 11.1648 6.125 11.0535 6.125 10.9375V8.49406L2.49703 12.122C2.45638 12.1627 2.40813 12.1949 2.35502 12.2169C2.30191 12.2389 2.24498 12.2502 2.1875 12.2502C2.13001 12.2502 2.07309 12.2389 2.01998 12.2169C1.96687 12.1949 1.91862 12.1627 1.87797 12.122C1.83732 12.0814 1.80508 12.0331 1.78308 11.98C1.76108 11.9269 1.74976 11.87 1.74976 11.8125C1.74976 11.755 1.76108 11.6981 1.78308 11.645C1.80508 11.5919 1.83732 11.5436 1.87797 11.503L5.50594 7.875H3.0625C2.94647 7.875 2.83519 7.82891 2.75314 7.74686C2.67109 7.66481 2.625 7.55353 2.625 7.4375C2.625 7.32147 2.67109 7.21019 2.75314 7.12814C2.83519 7.04609 2.94647 7 3.0625 7H6.5625C6.67853 7 6.78981 7.04609 6.87186 7.12814C6.95391 7.21019 7 7.32147 7 7.4375ZM11.375 1.75H4.375C4.14293 1.75 3.92038 1.84219 3.75628 2.00628C3.59219 2.17038 3.5 2.39294 3.5 2.625V5.25C3.5 5.36603 3.54609 5.47731 3.62814 5.55936C3.71019 5.64141 3.82147 5.6875 3.9375 5.6875C4.05353 5.6875 4.16481 5.64141 4.24686 5.55936C4.32891 5.47731 4.375 5.36603 4.375 5.25V2.625H11.375V9.625H8.75C8.63397 9.625 8.52269 9.67109 8.44064 9.75314C8.35859 9.83519 8.3125 9.94647 8.3125 10.0625C8.3125 10.1785 8.35859 10.2898 8.44064 10.3719C8.52269 10.4539 8.63397 10.5 8.75 10.5H11.375C11.6071 10.5 11.8296 10.4078 11.9937 10.2437C12.1578 10.0796 12.25 9.85706 12.25 9.625V2.625C12.25 2.39294 12.1578 2.17038 11.9937 2.00628C11.8296 1.84219 11.6071 1.75 11.375 1.75Z" fill="#FAF9F6"/>
</svg>
