<svg width="14" height="14" viewBox="0 0 14 14" fill="none" xmlns="http://www.w3.org/2000/svg">
<path d="M11.8125 2.1875H2.1875C1.95544 2.1875 1.73288 2.27969 1.56878 2.44378C1.40469 2.60788 1.3125 2.83044 1.3125 3.0625V10.9375C1.3125 11.1696 1.40469 11.3921 1.56878 11.5562C1.73288 11.7203 1.95544 11.8125 2.1875 11.8125H2.91977C3.00257 11.8125 3.08367 11.7891 3.15367 11.7448C3.22366 11.7006 3.27966 11.6374 3.31516 11.5626C3.5279 11.1134 3.86379 10.7339 4.28375 10.4681C4.70372 10.2023 5.1905 10.0612 5.6875 10.0612C6.1845 10.0612 6.67128 10.2023 7.09125 10.4681C7.51121 10.7339 7.8471 11.1134 8.05984 11.5626C8.09534 11.6374 8.15134 11.7006 8.22133 11.7448C8.29133 11.7891 8.37243 11.8125 8.45523 11.8125H11.8125C12.0446 11.8125 12.2671 11.7203 12.4312 11.5562C12.5953 11.3921 12.6875 11.1696 12.6875 10.9375V3.0625C12.6875 2.83044 12.5953 2.60788 12.4312 2.44378C12.2671 2.27969 12.0446 2.1875 11.8125 2.1875ZM4.375 7.875C4.375 7.61541 4.45198 7.36165 4.5962 7.14581C4.74042 6.92997 4.9454 6.76175 5.18523 6.66241C5.42506 6.56307 5.68896 6.53708 5.94356 6.58772C6.19816 6.63836 6.43202 6.76337 6.61558 6.94692C6.79913 7.13048 6.92414 7.36434 6.97478 7.61894C7.02542 7.87354 6.99943 8.13744 6.90009 8.37727C6.80075 8.6171 6.63253 8.82208 6.41669 8.9663C6.20085 9.11052 5.94709 9.1875 5.6875 9.1875C5.3394 9.1875 5.00556 9.04922 4.75942 8.80308C4.51328 8.55694 4.375 8.2231 4.375 7.875ZM11.8125 10.9375H8.71883C8.35348 10.3094 7.80276 9.80965 7.14219 9.50687C7.47337 9.21199 7.70711 8.82341 7.81242 8.39266C7.91773 7.9619 7.88964 7.50932 7.73187 7.09489C7.57411 6.68046 7.29411 6.32377 6.92901 6.0721C6.56391 5.82042 6.13094 5.68565 5.6875 5.68565C5.24406 5.68565 4.81109 5.82042 4.44599 6.0721C4.08089 6.32377 3.80089 6.68046 3.64313 7.09489C3.48536 7.50932 3.45727 7.9619 3.56258 8.39266C3.66789 8.82341 3.90163 9.21199 4.23281 9.50687C3.57224 9.80965 3.02152 10.3094 2.65617 10.9375H2.1875V3.0625H11.8125V10.9375ZM3.0625 5.25V4.375C3.0625 4.25897 3.10859 4.14769 3.19064 4.06564C3.27269 3.98359 3.38397 3.9375 3.5 3.9375H10.5C10.616 3.9375 10.7273 3.98359 10.8094 4.06564C10.8914 4.14769 10.9375 4.25897 10.9375 4.375V9.625C10.9375 9.74103 10.8914 9.85231 10.8094 9.93436C10.7273 10.0164 10.616 10.0625 10.5 10.0625H9.625C9.50897 10.0625 9.39769 10.0164 9.31564 9.93436C9.23359 9.85231 9.1875 9.74103 9.1875 9.625C9.1875 9.50897 9.23359 9.39769 9.31564 9.31564C9.39769 9.23359 9.50897 9.1875 9.625 9.1875H10.0625V4.8125H3.9375V5.25C3.9375 5.36603 3.89141 5.47731 3.80936 5.55936C3.72731 5.64141 3.61603 5.6875 3.5 5.6875C3.38397 5.6875 3.27269 5.64141 3.19064 5.55936C3.10859 5.47731 3.0625 5.36603 3.0625 5.25Z" fill="#FAF9F6"/>
</svg>
