<svg width="14" height="14" viewBox="0 0 14 14" fill="none" xmlns="http://www.w3.org/2000/svg">
<path d="M9.40625 4.15625C9.40625 3.68034 9.26513 3.21512 9.00072 2.81941C8.73632 2.4237 8.36052 2.11529 7.92083 1.93317C7.48115 1.75104 6.99733 1.70339 6.53057 1.79624C6.0638 1.88908 5.63505 2.11826 5.29853 2.45478C4.96201 2.7913 4.73283 3.22005 4.63999 3.68681C4.54714 4.15358 4.59479 4.6374 4.77692 5.07708C4.95904 5.51677 5.26745 5.89257 5.66316 6.15698C6.05887 6.42138 6.52409 6.5625 7 6.5625C7.63796 6.56178 8.24957 6.30803 8.70068 5.85693C9.15178 5.40583 9.40553 4.79421 9.40625 4.15625ZM7 5.6875C6.69715 5.6875 6.4011 5.5977 6.14928 5.42944C5.89747 5.26118 5.70121 5.02203 5.58531 4.74224C5.46941 4.46244 5.43909 4.15455 5.49817 3.85752C5.55726 3.56049 5.70309 3.28764 5.91724 3.07349C6.13139 2.85934 6.40424 2.71351 6.70127 2.65442C6.9983 2.59534 7.30619 2.62566 7.58599 2.74156C7.86578 2.85746 8.10493 3.05372 8.27319 3.30553C8.44144 3.55735 8.53125 3.8534 8.53125 4.15625C8.53125 4.56236 8.36992 4.95184 8.08276 5.23901C7.79559 5.52617 7.40611 5.6875 7 5.6875ZM10.2813 7C9.80534 7 9.34012 7.14113 8.94441 7.40553C8.5487 7.66993 8.24029 8.04573 8.05817 8.48542C7.87604 8.9251 7.82839 9.40892 7.92124 9.87569C8.01408 10.3425 8.24325 10.7712 8.57977 11.1077C8.9163 11.4442 9.34505 11.6734 9.81182 11.7663C10.2786 11.8591 10.7624 11.8115 11.2021 11.6293C11.6418 11.4472 12.0176 11.1388 12.282 10.7431C12.5464 10.3474 12.6875 9.88216 12.6875 9.40625C12.6868 8.7683 12.433 8.15668 11.9819 7.70558C11.5308 7.25447 10.9192 7.00073 10.2813 7ZM10.2813 10.9375C9.9784 10.9375 9.68235 10.8477 9.43053 10.6794C9.17872 10.5112 8.98246 10.272 8.86656 9.99224C8.75066 9.71244 8.72034 9.40455 8.77942 9.10752C8.83851 8.81049 8.98434 8.53764 9.19849 8.32349C9.41264 8.10934 9.68549 7.96351 9.98252 7.90442C10.2796 7.84534 10.5874 7.87566 10.8672 7.99156C11.147 8.10746 11.3862 8.30372 11.5544 8.55553C11.7227 8.80735 11.8125 9.1034 11.8125 9.40625C11.8125 9.81236 11.6512 10.2018 11.364 10.489C11.0768 10.7762 10.6874 10.9375 10.2813 10.9375ZM3.71875 7C3.24284 7 2.77762 7.14113 2.38191 7.40553C1.9862 7.66993 1.67779 8.04573 1.49567 8.48542C1.31354 8.9251 1.26589 9.40892 1.35874 9.87569C1.45158 10.3425 1.68076 10.7712 2.01728 11.1077C2.3538 11.4442 2.78255 11.6734 3.24932 11.7663C3.71608 11.8591 4.1999 11.8115 4.63958 11.6293C5.07927 11.4472 5.45507 11.1388 5.71948 10.7431C5.98388 10.3474 6.125 9.88216 6.125 9.40625C6.12428 8.7683 5.87053 8.15668 5.41943 7.70558C4.96833 7.25447 4.35671 7.00073 3.71875 7ZM3.71875 10.9375C3.4159 10.9375 3.11985 10.8477 2.86803 10.6794C2.61622 10.5112 2.41996 10.272 2.30406 9.99224C2.18816 9.71244 2.15784 9.40455 2.21692 9.10752C2.27601 8.81049 2.42184 8.53764 2.63599 8.32349C2.85014 8.10934 3.12299 7.96351 3.42002 7.90442C3.71705 7.84534 4.02494 7.87566 4.30473 7.99156C4.58453 8.10746 4.82368 8.30372 4.99194 8.55553C5.1602 8.80735 5.25 9.1034 5.25 9.40625C5.25 9.81236 5.08867 10.2018 4.80151 10.489C4.51434 10.7762 4.12486 10.9375 3.71875 10.9375Z" fill="#FAF9F6"/>
</svg>
