<svg width="14" height="14" viewBox="0 0 14 14" fill="none" xmlns="http://www.w3.org/2000/svg">
<path d="M10.5 5.25C10.8673 4.97453 11.1386 4.59048 11.2755 4.15224C11.4124 3.71401 11.4079 3.24381 11.2627 2.80825C11.1176 2.37269 10.839 1.99386 10.4666 1.72541C10.0941 1.45696 9.64662 1.3125 9.1875 1.3125H5.25C4.79089 1.3125 4.34341 1.45696 3.97095 1.72541C3.59849 1.99386 3.31995 2.37269 3.17476 2.80825C3.02957 3.24381 3.02511 3.71401 3.16201 4.15224C3.2989 4.59048 3.57021 4.97453 3.9375 5.25C3.65941 5.45841 3.43497 5.73008 3.28278 6.04251C3.13059 6.35494 3.05502 6.69913 3.06234 7.04658C3.06967 7.39403 3.15967 7.73473 3.32489 8.04047C3.49011 8.3462 3.7258 8.60818 4.01243 8.80469C3.6864 9.05256 3.42903 9.37955 3.2647 9.75469C3.10037 10.1298 3.03451 10.5407 3.07335 10.9484C3.1122 11.3561 3.25446 11.7472 3.48668 12.0845C3.7189 12.4219 4.03338 12.6944 4.40035 12.8762C4.76732 13.0581 5.17463 13.1433 5.58371 13.1237C5.9928 13.1041 6.39012 12.9805 6.73806 12.7644C7.086 12.5484 7.37304 12.2471 7.572 11.8891C7.77095 11.5311 7.87525 11.1283 7.875 10.7188V8.75C8.33913 9.0981 8.92253 9.24756 9.49686 9.16551C10.0712 9.08347 10.5894 8.77663 10.9375 8.3125C11.2856 7.84837 11.4351 7.26497 11.353 6.69064C11.271 6.11631 10.9641 5.5981 10.5 5.25ZM10.5 3.5C10.5 3.8481 10.3617 4.18194 10.1156 4.42808C9.86944 4.67422 9.5356 4.8125 9.1875 4.8125H7.875V2.1875H9.1875C9.5356 2.1875 9.86944 2.32578 10.1156 2.57192C10.3617 2.81806 10.5 3.1519 10.5 3.5ZM3.9375 3.5C3.9375 3.1519 4.07578 2.81806 4.32193 2.57192C4.56807 2.32578 4.90191 2.1875 5.25 2.1875H7V4.8125H5.25C4.90191 4.8125 4.56807 4.67422 4.32193 4.42808C4.07578 4.18194 3.9375 3.8481 3.9375 3.5ZM5.25 8.3125C4.90191 8.3125 4.56807 8.17422 4.32193 7.92808C4.07578 7.68194 3.9375 7.3481 3.9375 7C3.9375 6.6519 4.07578 6.31806 4.32193 6.07192C4.56807 5.82578 4.90191 5.6875 5.25 5.6875H7V8.3125H5.25ZM7 10.7188C7 11.0216 6.9102 11.3177 6.74194 11.5695C6.57369 11.8213 6.33454 12.0175 6.05474 12.1334C5.77494 12.2493 5.46706 12.2797 5.17002 12.2206C4.87299 12.1615 4.60015 12.0157 4.386 11.8015C4.17185 11.5874 4.02601 11.3145 3.96693 11.0175C3.90784 10.7204 3.93817 10.4126 4.05406 10.1328C4.16996 9.85297 4.36622 9.61382 4.61804 9.44556C4.86985 9.27731 5.1659 9.1875 5.46875 9.1875H7V10.7188ZM9.1875 8.3125C8.92792 8.3125 8.67416 8.23552 8.45832 8.0913C8.24248 7.94708 8.07425 7.7421 7.97491 7.50227C7.87557 7.26244 7.84958 6.99854 7.90022 6.74394C7.95087 6.48934 8.07587 6.25548 8.25943 6.07192C8.44298 5.88837 8.67685 5.76336 8.93145 5.71272C9.18605 5.66208 9.44995 5.68807 9.68978 5.78741C9.9296 5.88675 10.1346 6.05497 10.2788 6.27081C10.423 6.48665 10.5 6.74041 10.5 7C10.5 7.3481 10.3617 7.68194 10.1156 7.92808C9.86944 8.17422 9.5356 8.3125 9.1875 8.3125Z" fill="#FAF9F6"/>
</svg>
