<svg width="14" height="14" viewBox="0 0 14 14" fill="none" xmlns="http://www.w3.org/2000/svg">
<path d="M12.5595 11.9405L9.82133 9.20282C10.615 8.25 11.0107 7.02789 10.9263 5.79072C10.8418 4.55355 10.2836 3.39656 9.36783 2.56046C8.45205 1.72435 7.24918 1.27349 6.00945 1.30166C4.76972 1.32984 3.58858 1.83488 2.71173 2.71173C1.83488 3.58858 1.32984 4.76972 1.30166 6.00945C1.27349 7.24918 1.72435 8.45205 2.56046 9.36783C3.39656 10.2836 4.55355 10.8418 5.79072 10.9263C7.02789 11.0107 8.25 10.615 9.20282 9.82133L11.9405 12.5595C11.9811 12.6002 12.0294 12.6324 12.0825 12.6544C12.1356 12.6764 12.1925 12.6877 12.25 12.6877C12.3075 12.6877 12.3644 12.6764 12.4175 12.6544C12.4706 12.6324 12.5189 12.6002 12.5595 12.5595C12.6002 12.5189 12.6324 12.4706 12.6544 12.4175C12.6764 12.3644 12.6877 12.3075 12.6877 12.25C12.6877 12.1925 12.6764 12.1356 12.6544 12.0825C12.6324 12.0294 12.6002 11.9811 12.5595 11.9405ZM2.1875 6.125C2.1875 5.34624 2.41843 4.58496 2.85109 3.93744C3.28375 3.28993 3.8987 2.78525 4.61819 2.48723C5.33767 2.18921 6.12937 2.11123 6.89317 2.26316C7.65697 2.41509 8.35857 2.7901 8.90924 3.34077C9.4599 3.89144 9.83492 4.59303 9.98685 5.35683C10.1388 6.12063 10.0608 6.91233 9.76278 7.63182C9.46476 8.3513 8.96008 8.96626 8.31256 9.39891C7.66504 9.83157 6.90377 10.0625 6.125 10.0625C5.08107 10.0613 4.08022 9.64613 3.34205 8.90796C2.60388 8.16978 2.18866 7.16894 2.1875 6.125Z" fill="#FAF9F6"/>
</svg>
